<?xml version="1.0" encoding="UTF-8"?>
<svg id="b" data-name="Шар 2" xmlns="http://www.w3.org/2000/svg" xlink="http://www.w3.org/1999/xlink" viewBox="0 0 66.917 36.439">
  <defs>
    <linearGradient id="e" data-name="New Gradient Swatch copy 2" x1="38.746" y1="38.996" x2="59.071" y2="18.671" gradientUnits="userSpaceOnUse">
      <stop offset="0" stopColor="#d0e8f8"/>
      <stop offset="1" stopColor="#e1eef9"/>
    </linearGradient>
  </defs>
  <g id="c" data-name="Icons">
    <g id="d" data-name="Mostly Cloudy">
      <path d="M46.003,36.439c5.889,0,10.664-4.774,10.664-10.664s-4.774-10.664-10.664-10.664c-.037,0-.072,.005-.109,.005C44.945,6.613,37.736,0,28.979,0c-6.916,0-12.864,4.126-15.528,10.049-.084-.002-.168-.006-.252-.006C5.909,10.042,0,15.951,0,23.241s5.909,13.198,13.198,13.198" style={{fill: "#fff"}}/>
      <path d="M60.22,36.439c3.698,0,6.696-2.998,6.696-6.696s-2.998-6.696-6.696-6.696c-.023,0-.045,.003-.068,.003-.596-5.34-5.123-9.492-10.622-9.492-4.343,0-8.078,2.591-9.751,6.31-.053,0-.105-.004-.158-.004-4.577,0-8.288,3.711-8.288,8.288s3.711,8.288,8.288,8.288" style={{fill: "url(#e")}}/>
    </g>
  </g>
</svg>