<?xml version="1.0" encoding="UTF-8"?>
<svg id="b" data-name="Шар 2" xmlns="http://www.w3.org/2000/svg" xlink="http://www.w3.org/1999/xlink" viewBox="0 0 67 45.107">
  <defs>
    <linearGradient id="e" data-name="New Gradient Swatch copy" x1="42.616" y1="24.383" x2="58.218" y2="8.782" gradientUnits="userSpaceOnUse">
      <stop offset="0" stop-color="#00aeef"/>
      <stop offset="1" stop-color="#00bdf2"/>
    </linearGradient>
    <linearGradient id="f" data-name="New Gradient Swatch copy 2" x1="0" y1="26.887" x2="56.667" y2="26.887" gradientUnits="userSpaceOnUse">
      <stop offset="0" stop-color="#d0e8f8"/>
      <stop offset="1" stop-color="#e1eef9"/>
    </linearGradient>
    <linearGradient id="g" data-name="New Gradient Swatch 1" x1="60.098" y1="7.323" x2="63.767" y2="3.653" gradientUnits="userSpaceOnUse">
      <stop offset="0" stop-color="#fdb728"/>
      <stop offset="1" stop-color="#ffcd23"/>
    </linearGradient>
    <linearGradient id="h" data-name="New Gradient Swatch 1" x1="5.257" y1="10.493" x2="8.229" y2="7.522" href="#g"/>
  </defs>
  <g id="c" data-name="Icons">
    <g id="d" data-name="Party Cloudy Night">
      <path d="M52.94,28.666c-8.054,0-14.606-6.552-14.606-14.606C38.333,7.586,42.681,1.816,48.907,.029c.271-.076,.556-.002,.752,.195,.197,.197,.271,.485,.194,.752-.342,1.194-.516,2.409-.516,3.611,0,7.21,5.866,13.076,13.076,13.076,1.2,0,2.415-.174,3.611-.517,.268-.075,.555-.001,.752,.195,.197,.197,.271,.485,.194,.752-1.787,6.226-7.557,10.574-14.03,10.574Z" style={{fill: "url(#e)"}}/>
      <path d="M46.003,45.107c5.889,0,10.664-4.774,10.664-10.664s-4.774-10.664-10.664-10.664c-.037,0-.072,.005-.109,.005-.949-8.504-8.158-15.117-16.915-15.117-6.916,0-12.864,4.126-15.528,10.049-.084-.002-.168-.006-.252-.006C5.909,18.71,0,24.619,0,31.909s5.909,13.198,13.198,13.198" style={{fill: "url(#f)"}}/>
      <path d="M60.22,45.107c3.698,0,6.696-2.998,6.696-6.696s-2.998-6.696-6.696-6.696c-.023,0-.045,.003-.068,.003-.596-5.34-5.123-9.492-10.622-9.492-4.343,0-8.078,2.591-9.751,6.31-.053,0-.105-.004-.158-.004-4.577,0-8.288,3.711-8.288,8.288s3.711,8.288,8.288,8.288" style={{fill: "#fff"}}/>
      <path d="M62.43,8.309c-.273,1.005-.721,1.005-.994,0s-1.319-2.05-2.324-2.324-1.005-.721,0-.994,2.05-1.319,2.324-2.324,.721-1.005,.994,0,1.319,2.05,2.324,2.324,1.005,.721,0,.994-2.05,1.319-2.324,2.324Z" style={{fill: "url(#g)"}}/>
      <path d="M7.145,11.292c-.221,.814-.584,.814-.805,0s-1.068-1.661-1.882-1.882-.814-.584,0-.805,1.661-1.068,1.882-1.882,.584-.814,.805,0,1.068,1.661,1.882,1.882,.814,.584,0,.805-1.661,1.068-1.882,1.882Z" style={{fill: "url(#h)"}}/>
    </g>
  </g>
</svg>