<?xml version="1.0" encoding="UTF-8"?>
<svg id="b" data-name="Шар 2" xmlns="http://www.w3.org/2000/svg" xlink="http://www.w3.org/1999/xlink" viewBox="0 0 66.917 40.26">
  <defs>
    <linearGradient id="e" data-name="New Gradient Swatch 1" x1="39.157" y1="22.13" x2="57.49" y2="3.797" gradientUnits="userSpaceOnUse">
      <stop offset="0" stop-color="#fdb728"/>
      <stop offset="1" stop-color="#ffcd23"/>
    </linearGradient>
    <linearGradient id="f" data-name="New Gradient Swatch copy 2" x1="38.746" y1="42.817" x2="59.071" y2="22.492" gradientUnits="userSpaceOnUse">
      <stop offset="0" stop-color="#d0e8f8"/>
      <stop offset="1" stop-color="#e1eef9"/>
    </linearGradient>
  </defs>
  <g id="c" data-name="Icons">
    <g id="d" data-name="Party Cloudy">
      <circle cx="48.323" cy="12.963" r="12.963" style="fill: url(#e)"/>
      <path d="M46.003,40.26c5.889,0,10.664-4.774,10.664-10.664s-4.774-10.664-10.664-10.664c-.037,0-.072,.005-.109,.005-.949-8.504-8.158-15.117-16.915-15.117-6.916,0-12.864,4.126-15.528,10.049-.084-.002-.168-.006-.252-.006C5.909,13.863,0,19.772,0,27.061s5.909,13.198,13.198,13.198" style="fill: #fff"/>
      <path d="M60.22,40.26c3.698,0,6.696-2.998,6.696-6.696s-2.998-6.696-6.696-6.696c-.023,0-.045,.003-.068,.003-.596-5.34-5.123-9.492-10.622-9.492-4.343,0-8.078,2.591-9.751,6.31-.053,0-.105-.004-.158-.004-4.577,0-8.288,3.711-8.288,8.288s3.711,8.288,8.288,8.288" style="fill: url(#f)"/>
    </g>
  </g>
</svg>