<?xml version="1.0" encoding="UTF-8"?>
<svg id="b" data-name="Шар 2" xmlns="http://www.w3.org/2000/svg" viewBox="0 0 44.5 17.5">
  <g id="c" data-name="Icons">
    <g id="d" data-name="Haze">
      <path d="M11.5,3H1.5c-.829,0-1.5-.671-1.5-1.5S.671,0,1.5,0H11.5c.829,0,1.5,.671,1.5,1.5s-.671,1.5-1.5,1.5Z" style={{fill: "#fff"}}/>
      <path d="M33,3h-15c-.829,0-1.5-.671-1.5-1.5s.671-1.5,1.5-1.5h15c.829,0,1.5,.671,1.5,1.5s-.671,1.5-1.5,1.5Z" style={{fill: "#fff"}}/>
      <path d="M11.5,17.5H1.5c-.829,0-1.5-.671-1.5-1.5s.671-1.5,1.5-1.5H11.5c.829,0,1.5,.671,1.5,1.5s-.671,1.5-1.5,1.5Z" style={{fill: "#fff"}}/>
      <path d="M33,17.5h-15c-.829,0-1.5-.671-1.5-1.5s.671-1.5,1.5-1.5h15c.829,0,1.5,.671,1.5,1.5s-.671,1.5-1.5,1.5Z" style={{fill: "#fff"}}/>
      <path d="M21.5,10.5H1.5c-.829,0-1.5-.671-1.5-1.5s.671-1.5,1.5-1.5H21.5c.829,0,1.5,.671,1.5,1.5s-.671,1.5-1.5,1.5Z" style={{fill: "#fff"}}/>
      <path d="M43,10.5h-15c-.829,0-1.5-.671-1.5-1.5s.671-1.5,1.5-1.5h15c.829,0,1.5,.671,1.5,1.5s-.671,1.5-1.5,1.5Z" style={{fill: "#fff"}}/>
    </g>
  </g>
</svg>