<?xml version="1.0" encoding="UTF-8"?>
<svg id="b" data-name="Шар 2" xmlns="http://www.w3.org/2000/svg" xlink="http://www.w3.org/1999/xlink" viewBox="0 0 64.109 40.91">
  <defs>
    <linearGradient id="e" data-name="New Gradient Swatch 1" x1="5.991" y1="34.919" x2="34.919" y2="5.991" gradientUnits="userSpaceOnUse">
      <stop offset="0" stop-color="#fdb728"/>
      <stop offset="1" stop-color="#ffcd23"/>
    </linearGradient>
  </defs>
  <g id="c" data-name="Icons">
    <g id="d" data-name="Haze">
      <circle cx="20.455" cy="20.455" r="20.455" style="fill: url(#e);"/>
      <path d="M31.109,21.157h-10c-.829,0-1.5-.671-1.5-1.5s.671-1.5,1.5-1.5h10c.829,0,1.5,.671,1.5,1.5s-.671,1.5-1.5,1.5Z" style={{fill: "#fff"}}/>
      <path d="M52.609,21.157h-15c-.829,0-1.5-.671-1.5-1.5s.671-1.5,1.5-1.5h15c.829,0,1.5,.671,1.5,1.5s-.671,1.5-1.5,1.5Z" style={{fill: "#fff"}}/>
      <path d="M31.109,35.657h-10c-.829,0-1.5-.671-1.5-1.5s.671-1.5,1.5-1.5h10c.829,0,1.5,.671,1.5,1.5s-.671,1.5-1.5,1.5Z" style={{fill: "#fff"}}/>
      <path d="M52.609,35.657h-15c-.829,0-1.5-.671-1.5-1.5s.671-1.5,1.5-1.5h15c.829,0,1.5,.671,1.5,1.5s-.671,1.5-1.5,1.5Z" style={{fill: "#fff"}}/>
      <path d="M41.109,28.657H21.109c-.829,0-1.5-.671-1.5-1.5s.671-1.5,1.5-1.5h20c.829,0,1.5,.671,1.5,1.5s-.671,1.5-1.5,1.5Z" style={{fill: "#fff"}}/>
      <path d="M62.609,28.657h-15c-.829,0-1.5-.671-1.5-1.5s.671-1.5,1.5-1.5h15c.829,0,1.5,.671,1.5,1.5s-.671,1.5-1.5,1.5Z" style={{fill: "#fff"}}/>
    </g>
  </g>
</svg>