<?xml version="1.0" encoding="UTF-8"?>
<svg id="b" data-name="Шар 2" xmlns="http://www.w3.org/2000/svg" xlink="http://www.w3.org/1999/xlink" viewBox="0 0 45.509 53.018">
  <defs>
    <linearGradient id="e" data-name="New Gradient Swatch copy" x1="6.799" y1="46.219" x2="31.566" y2="21.452" gradientUnits="userSpaceOnUse">
      <stop offset="0" stop-color="#00aeef"/>
      <stop offset="1" stop-color="#00bdf2"/>
    </linearGradient>
    <linearGradient id="f" data-name="New Gradient Swatch 1" x1="34.53" y1="20.436" x2="40.33" y2="14.636" gradientUnits="userSpaceOnUse">
      <stop offset="0" stop-color="#fdb728"/>
      <stop offset="1" stop-color="#ffcd23"/>
    </linearGradient>
    <linearGradient id="g" data-name="New Gradient Swatch 1" x1="27.771" y1="4.996" x2="31.161" y2="1.607" href="#f"/>
  </defs>
  <g id="c" data-name="Icons">
    <g id="d" data-name="Clear Night">
      <path d="M23.188,53.018C10.402,53.018,0,42.616,0,29.83,0,19.553,6.903,10.394,16.786,7.557c.431-.12,.883-.003,1.195,.309,.312,.313,.431,.769,.308,1.194-.543,1.895-.82,3.824-.82,5.732,0,11.446,9.312,20.758,20.759,20.758,1.905,0,3.834-.276,5.732-.82,.426-.119,.881-.002,1.193,.309,.312,.313,.431,.769,.308,1.194-2.837,9.883-11.996,16.786-22.273,16.786Z" style={{fill: "url(#e)"}}/>
      <path d="M38.216,21.994c-.432,1.588-1.139,1.588-1.571,0s-2.085-3.241-3.673-3.673-1.588-1.139,0-1.571,3.241-2.085,3.673-3.673,1.139-1.588,1.571,0,2.085,3.241,3.673,3.673,1.588,1.139,0,1.571-3.241,2.085-3.673,3.673Z" style={{fill: "url(#f)"}}/>
      <path d="M29.925,5.907c-.253,.928-.666,.928-.918,0s-1.218-1.894-2.146-2.146-.928-.666,0-.918,1.894-1.218,2.146-2.146,.666-.928,.918,0,1.218,1.894,2.146,2.146,.928,.666,0,.918-1.894,1.218-2.146,2.146Z" style={{fill: "url(#g)"}}/>
    </g>
  </g>
</svg>