<?xml version="1.0" encoding="UTF-8"?>
<svg id="b" data-name="Шар 2" xmlns="http://www.w3.org/2000/svg" xlink="http://www.w3.org/1999/xlink" viewBox="0 0 67 67.898">
  <defs>
    <linearGradient id="e" data-name="New Gradient Swatch copy" x1="42.616" y1="24.383" x2="58.218" y2="8.782" gradientUnits="userSpaceOnUse">
      <stop offset="0" stop-color="#00aeef"/>
      <stop offset="1" stop-color="#00bdf2"/>
    </linearGradient>
    <linearGradient id="f" data-name="New Gradient Swatch copy 2" x1="11.804" y1="48.443" x2="44.172" y2="16.075" gradientUnits="userSpaceOnUse">
      <stop offset="0" stop-color="#d0e8f8"/>
      <stop offset="1" stop-color="#e1eef9"/>
    </linearGradient>
    <linearGradient id="g" data-name="New Gradient Swatch copy" x1="10.143" y1="56.217" x2="17.031" y2="56.217" href="#e"/>
    <linearGradient id="h" data-name="New Gradient Swatch copy" x1="26.255" y1="56.217" x2="33.143" y2="56.217" href="#e"/>
    <linearGradient id="i" data-name="New Gradient Swatch copy" x1="42.367" y1="56.217" x2="49.255" y2="56.217" href="#e"/>
    <linearGradient id="j" data-name="New Gradient Swatch copy" x1="15.143" y1="63.397" x2="22.031" y2="63.397" href="#e"/>
    <linearGradient id="k" data-name="New Gradient Swatch copy" x1="31.756" y1="63.397" x2="38.643" y2="63.397" href="#e"/>
    <linearGradient id="l" data-name="New Gradient Swatch copy" x1="48.367" y1="63.397" x2="55.255" y2="63.397" href="#e"/>
  </defs>
  <g id="c" data-name="Icons">
    <g id="d" data-name="Drizzle Night">
      <path d="M52.94,28.666c-8.054,0-14.606-6.552-14.606-14.606C38.333,7.586,42.681,1.816,48.907,.029c.271-.076,.556-.002,.752,.195,.197,.197,.271,.485,.194,.752-.342,1.194-.516,2.409-.516,3.611,0,7.21,5.866,13.076,13.076,13.076,1.2,0,2.415-.174,3.611-.517,.268-.075,.555-.001,.752,.195,.197,.197,.271,.485,.194,.752-1.787,6.226-7.557,10.574-14.03,10.574Z" style={{fill: "url(#e)"}}/>
      <path d="M46.003,44.37c5.889,0,10.664-4.774,10.664-10.664s-4.774-10.664-10.664-10.664c-.037,0-.072,.005-.109,.005-.949-8.504-8.158-15.117-16.915-15.117-6.916,0-12.864,4.126-15.528,10.049-.084-.002-.168-.006-.252-.006C5.909,17.973,0,23.883,0,31.172s5.909,13.198,13.198,13.198" style={{fill: "url(#f)"}}/>
      <path d="M60.22,44.37c3.698,0,6.696-2.998,6.696-6.696s-2.998-6.696-6.696-6.696c-.023,0-.045,.003-.068,.003-.596-5.34-5.123-9.492-10.622-9.492-4.343,0-8.078,2.591-9.751,6.31-.053,0-.105-.004-.158-.004-4.577,0-8.288,3.711-8.288,8.288s3.711,8.288,8.288,8.288" style={{fill: "#fff"}}/>
      <path d="M12.142,60.718c-.339,0-.683-.086-.998-.269-.957-.552-1.284-1.775-.732-2.732l2.887-5c.553-.957,1.772-1.287,2.732-.732,.957,.552,1.284,1.775,.732,2.732l-2.887,5c-.371,.642-1.043,1-1.734,1Z" style={{fill: "url(#g)"}}/>
      <path d="M28.254,60.718c-.339,0-.683-.086-.998-.269-.957-.552-1.284-1.775-.732-2.732l2.887-5c.553-.957,1.772-1.287,2.732-.732,.957,.552,1.284,1.775,.732,2.732l-2.887,5c-.371,.642-1.043,1-1.734,1Z" style={{fill: "url(#h)"}}/>
      <path d="M44.365,60.718c-.339,0-.683-.086-.998-.269-.957-.552-1.284-1.775-.732-2.732l2.887-5c.553-.957,1.772-1.287,2.732-.732,.957,.552,1.284,1.775,.732,2.732l-2.887,5c-.371,.642-1.043,1-1.734,1Z" style={{fill: "url(#i)"}}/>
      <path d="M17.142,67.898c-.339,0-.683-.086-.998-.269-.957-.552-1.284-1.775-.732-2.732l2.887-5c.553-.956,1.773-1.286,2.732-.732,.957,.552,1.284,1.775,.732,2.732l-2.887,5c-.371,.642-1.043,1-1.734,1Z" style={{fill: "url(#j)"}}/>
      <path d="M33.754,67.898c-.339,0-.683-.086-.998-.269-.957-.552-1.284-1.775-.732-2.732l2.887-5c.553-.956,1.772-1.286,2.732-.732,.957,.552,1.284,1.775,.732,2.732l-2.887,5c-.371,.642-1.043,1-1.734,1Z" style={{fill: "url(#k)"}}/>
      <path d="M50.365,67.898c-.339,0-.683-.086-.998-.269-.957-.552-1.284-1.775-.732-2.732l2.887-5c.553-.956,1.772-1.286,2.732-.732,.957,.552,1.284,1.775,.732,2.732l-2.887,5c-.371,.642-1.043,1-1.734,1Z" style={{fill: "url(#l)"}}/>
    </g>
  </g>
</svg>