<?xml version="1.0" encoding="UTF-8"?>
<svg id="b" data-name="Шар 2" xmlns="http://www.w3.org/2000/svg" xlink="http://www.w3.org/1999/xlink" viewBox="0 0 66.917 58.717">
  <defs>
    <linearGradient id="e" data-name="New Gradient Swatch 1" x1="39.157" y1="22.13" x2="57.49" y2="3.797" gradientUnits="userSpaceOnUse">
      <stop offset="0" stop-color="#fdb728"/>
      <stop offset="1" stop-color="#ffcd23"/>
    </linearGradient>
    <linearGradient id="f" data-name="New Gradient Swatch copy 2" x1="38.746" y1="44.928" x2="59.071" y2="24.603" gradientUnits="userSpaceOnUse">
      <stop offset="0" stop-color="#d0e8f8"/>
      <stop offset="1" stop-color="#e1eef9"/>
    </linearGradient>
    <linearGradient id="g" data-name="New Gradient Swatch copy" x1="10.355" y1="54.216" x2="17.243" y2="54.216" gradientUnits="userSpaceOnUse">
      <stop offset="0" stop-color="#00aeef"/>
      <stop offset="1" stop-color="#00bdf2"/>
    </linearGradient>
    <linearGradient id="h" data-name="New Gradient Swatch copy" x1="23.968" x2="30.855" href="#g"/>
    <linearGradient id="i" data-name="New Gradient Swatch copy" x1="38.579" x2="45.467" href="#g"/>
  </defs>
  <g id="c" data-name="Icons">
    <g id="d" data-name="Scattered Showers">
      <circle cx="48.323" cy="12.963" r="12.963" style={{fill: "url(#e)"}}/>
      <path d="M46.003,42.37c5.889,0,10.664-4.774,10.664-10.664s-4.774-10.664-10.664-10.664c-.037,0-.072,.005-.109,.005-.949-8.504-8.158-15.117-16.915-15.117-6.916,0-12.864,4.126-15.528,10.049-.084-.002-.168-.006-.252-.006C5.909,15.973,0,21.883,0,29.172s5.909,13.198,13.198,13.198" style={{fill: "#fff"}}/>
      <path d="M60.22,42.37c3.698,0,6.696-2.998,6.696-6.696s-2.998-6.696-6.696-6.696c-.023,0-.045,.003-.068,.003-.596-5.34-5.123-9.492-10.622-9.492-4.343,0-8.078,2.591-9.751,6.31-.053,0-.105-.004-.158-.004-4.577,0-8.288,3.711-8.288,8.288s3.711,8.288,8.288,8.288" style={{fill: "url(#f)"}}/>
      <path d="M12.354,58.717c-.339,0-.683-.086-.998-.268-.957-.553-1.284-1.775-.732-2.732l2.887-5c.553-.957,1.772-1.285,2.732-.732,.957,.553,1.284,1.775,.732,2.732l-2.887,5c-.371,.642-1.043,1-1.734,1Z" style={{fill: "url(#g)"}}/>
      <path d="M25.966,58.717c-.339,0-.683-.086-.998-.268-.957-.553-1.284-1.775-.732-2.732l2.887-5c.553-.957,1.773-1.285,2.732-.732,.957,.553,1.284,1.775,.732,2.732l-2.887,5c-.371,.642-1.043,1-1.734,1Z" style={{fill: "url(#h)"}}/>
      <path d="M40.577,58.717c-.339,0-.683-.086-.998-.268-.957-.553-1.284-1.775-.732-2.732l2.887-5c.553-.957,1.772-1.285,2.732-.732,.957,.553,1.284,1.775,.732,2.732l-2.887,5c-.371,.642-1.043,1-1.734,1Z" style={{fill: "url(#i)"}}/>
    </g>
  </g>
</svg>