<?xml version="1.0" encoding="UTF-8"?>
<svg id="b" data-name="Шар 2" xmlns="http://www.w3.org/2000/svg" xlink="http://www.w3.org/1999/xlink" viewBox="0 0 66.917 59.966">
  <defs>
    <linearGradient id="e" data-name="New Gradient Swatch copy 2" x1="38.746" y1="38.996" x2="59.071" y2="18.671" gradientUnits="userSpaceOnUse">
      <stop offset="0" stop-color="#d0e8f8"/>
      <stop offset="1" stop-color="#e1eef9"/>
    </linearGradient>
    <linearGradient id="f" data-name="New Gradient Swatch copy" x1="7.643" y1="48.285" x2="14.531" y2="48.285" gradientUnits="userSpaceOnUse">
      <stop offset="0" stop-color="#00aeef"/>
      <stop offset="1" stop-color="#00bdf2"/>
    </linearGradient>
    <linearGradient id="g" data-name="New Gradient Swatch copy" x1="23.755" x2="30.643" href="#f"/>
    <linearGradient id="h" data-name="New Gradient Swatch copy" x1="39.867" x2="46.755" href="#f"/>
    <linearGradient id="i" data-name="New Gradient Swatch copy" x1="12.643" y1="55.465" x2="19.531" y2="55.465" href="#f"/>
    <linearGradient id="j" data-name="New Gradient Swatch copy" x1="29.256" y1="55.465" x2="36.143" y2="55.465" href="#f"/>
    <linearGradient id="k" data-name="New Gradient Swatch copy" x1="45.867" y1="55.465" x2="52.755" y2="55.465" href="#f"/>
  </defs>
  <g id="c" data-name="Icons">
    <g id="d" data-name="Drizzle">
      <path d="M46.003,36.439c5.889,0,10.664-4.774,10.664-10.664s-4.774-10.664-10.664-10.664c-.037,0-.072,.005-.109,.005C44.945,6.613,37.736,0,28.979,0c-6.916,0-12.864,4.126-15.528,10.049-.084-.002-.168-.006-.252-.006C5.909,10.042,0,15.951,0,23.241s5.909,13.198,13.198,13.198" style={{fill: "#fff"}}/>
      <path d="M60.22,36.439c3.698,0,6.696-2.998,6.696-6.696s-2.998-6.696-6.696-6.696c-.023,0-.045,.003-.068,.003-.596-5.34-5.123-9.492-10.622-9.492-4.343,0-8.078,2.591-9.751,6.31-.053,0-.105-.004-.158-.004-4.577,0-8.288,3.711-8.288,8.288s3.711,8.288,8.288,8.288" style={{fill: "url(#e)"}}/>
      <path d="M9.642,52.786c-.339,0-.683-.086-.998-.269-.957-.552-1.284-1.775-.732-2.732l2.887-5c.553-.957,1.772-1.287,2.732-.732,.957,.552,1.284,1.775,.732,2.732l-2.887,5c-.371,.642-1.043,1-1.734,1Z" style={{fill: "url(#f)"}}/>
      <path d="M25.754,52.786c-.339,0-.683-.086-.998-.269-.957-.552-1.284-1.775-.732-2.732l2.887-5c.553-.957,1.772-1.287,2.732-.732,.957,.552,1.284,1.775,.732,2.732l-2.887,5c-.371,.642-1.043,1-1.734,1Z" style={{fill: "url(#g)"}}/>
      <path d="M41.865,52.786c-.339,0-.683-.086-.998-.269-.957-.552-1.284-1.775-.732-2.732l2.887-5c.553-.957,1.772-1.287,2.732-.732,.957,.552,1.284,1.775,.732,2.732l-2.887,5c-.371,.642-1.043,1-1.734,1Z" style={{fill: "url(#h)"}}/>
      <path d="M14.642,59.966c-.339,0-.683-.086-.998-.269-.957-.552-1.284-1.775-.732-2.732l2.887-5c.553-.957,1.773-1.286,2.732-.732,.957,.552,1.284,1.775,.732,2.732l-2.887,5c-.371,.642-1.043,1-1.734,1Z" style={{fill: "url(#i)"}}/>
      <path d="M31.254,59.966c-.339,0-.683-.086-.998-.269-.957-.552-1.284-1.775-.732-2.732l2.887-5c.553-.957,1.772-1.286,2.732-.732,.957,.552,1.284,1.775,.732,2.732l-2.887,5c-.371,.642-1.043,1-1.734,1Z" style={{fill: "url(#j)"}}/>
      <path d="M47.865,59.966c-.339,0-.683-.086-.998-.269-.957-.552-1.284-1.775-.732-2.732l2.887-5c.553-.957,1.772-1.286,2.732-.732,.957,.552,1.284,1.775,.732,2.732l-2.887,5c-.371,.642-1.043,1-1.734,1Z" style={{fill: "url(#k)"}}/>
    </g>
  </g>
</svg>