<?xml version="1.0" encoding="UTF-8"?>
<svg id="b" data-name="Шар 2" xmlns="http://www.w3.org/2000/svg" xlink="http://www.w3.org/1999/xlink" viewBox="0 0 66.917 65.005">
  <defs>
    <linearGradient id="e" data-name="New Gradient Swatch copy 2" x1="11.135" y1="46.722" x2="15.135" y2="46.722" gradientUnits="userSpaceOnUse">
      <stop offset="0" stop-color="#d0e8f8"/>
      <stop offset="1" stop-color="#e1eef9"/>
    </linearGradient>
    <linearGradient id="f" data-name="New Gradient Swatch copy 2" x1="21.135" x2="25.135" href="#e"/>
    <linearGradient id="g" data-name="New Gradient Swatch copy 2" x1="31.135" x2="35.135" href="#e"/>
    <linearGradient id="h" data-name="New Gradient Swatch copy 2" x1="41.135" x2="45.135" href="#e"/>
    <linearGradient id="i" data-name="New Gradient Swatch copy 2" y1="63.005" y2="63.005" href="#e"/>
    <linearGradient id="j" data-name="New Gradient Swatch copy 2" x1="21.135" y1="63.005" x2="25.135" y2="63.005" href="#e"/>
    <linearGradient id="k" data-name="New Gradient Swatch copy 2" x1="31.135" y1="63.005" x2="35.135" y2="63.005" href="#e"/>
    <linearGradient id="l" data-name="New Gradient Swatch copy 2" x1="41.135" y1="63.005" x2="45.135" y2="63.005" href="#e"/>
    <linearGradient id="m" data-name="New Gradient Swatch copy 2" x1="6.135" y1="55.005" x2="10.135" y2="55.005" href="#e"/>
    <linearGradient id="n" data-name="New Gradient Swatch copy 2" x1="16.135" y1="55.005" x2="20.135" y2="55.005" href="#e"/>
    <linearGradient id="o" data-name="New Gradient Swatch copy 2" x1="26.135" y1="55.005" x2="30.135" y2="55.005" href="#e"/>
    <linearGradient id="p" data-name="New Gradient Swatch copy 2" x1="36.135" y1="55.005" x2="40.135" y2="55.005" href="#e"/>
    <linearGradient id="q" data-name="New Gradient Swatch copy 2" x1="38.746" y1="38.996" x2="59.071" y2="18.671" href="#e"/>
  </defs>
  <g id="c" data-name="Icons">
    <g id="d" data-name="Snow">
      <circle cx="13.135" cy="46.722" r="2" style={{fill: "url(#e)"}}/>
      <circle cx="23.135" cy="46.722" r="2" style={{fill: "url(#f)"}}/>
      <circle cx="33.135" cy="46.722" r="2" style={{fill: "url(#g)"}}/>
      <circle cx="43.135" cy="46.722" r="2" style={{fill: "url(#h)"}}/>
      <circle cx="13.135" cy="63.005" r="2" style={{fill: "url(#i)"}}/>
      <circle cx="23.135" cy="63.005" r="2" style={{fill: "url(#j)"}}/>
      <circle cx="33.135" cy="63.005" r="2" style={{fill: "url(#k)"}}/>
      <circle cx="43.135" cy="63.005" r="2" style={{fill: "url(#l)"}}/>
      <circle cx="8.135" cy="55.005" r="2" style={{fill: "url(#m)"}}/>
      <circle cx="18.135" cy="55.005" r="2" style={{fill: "url(#n)"}}/>
      <circle cx="28.135" cy="55.005" r="2" style={{fill: "url(#o)"}}/>
      <circle cx="38.135" cy="55.005" r="2" style={{fill: "url(#p)"}}/>
      <path d="M46.003,36.439c5.889,0,10.664-4.774,10.664-10.664s-4.774-10.664-10.664-10.664c-.037,0-.072,.005-.109,.005C44.945,6.613,37.736,0,28.979,0c-6.916,0-12.864,4.126-15.528,10.049-.084-.002-.168-.006-.252-.006C5.909,10.042,0,15.951,0,23.241s5.909,13.198,13.198,13.198" style={{fill: "#fff"}}/>
      <path d="M60.22,36.439c3.698,0,6.696-2.998,6.696-6.696s-2.998-6.696-6.696-6.696c-.023,0-.045,.003-.068,.003-.596-5.34-5.123-9.492-10.622-9.492-4.343,0-8.078,2.591-9.751,6.31-.053,0-.105-.004-.158-.004-4.577,0-8.288,3.711-8.288,8.288s3.711,8.288,8.288,8.288" style={{fill: "url(#q)"}}/>
    </g>
  </g>
</svg>