<?xml version="1.0" encoding="UTF-8"?>
<svg id="b" data-name="Шар 2" xmlns="http://www.w3.org/2000/svg" xlink="http://www.w3.org/1999/xlink" viewBox="0 0 65.448 34.342">
  <defs>
    <linearGradient id="e" data-name="New Gradient Swatch copy" x1="13.845" y1="29.197" x2="54.798" y2="29.197" gradientUnits="userSpaceOnUse">
      <stop offset="0" stopColor="#00aeef"/>
      <stop offset="1" stopColor="#00bdf2"/>
    </linearGradient>
    <linearGradient id="f" data-name="New Gradient Swatch copy" x1="0" y1="20.366" x2="65.448" y2="20.366" href="#e"/>
    <linearGradient id="g" data-name="New Gradient Swatch copy" x1="24.496" y1="5.145" y2="5.145" href="#e"/>
  </defs>
  <g id="c" data-name="Icons">
    <g id="d" data-name="Breezy">
      <path d="M49.653,34.342c-2.841,0-5.145-2.303-5.145-5.145,0-.691,.141-1.348,.388-1.95H15.443c-.882,0-1.598-.715-1.598-1.598s.716-1.598,1.598-1.598H49.524c.022,0,.043,.006,.064,.007,.022,0,.042-.007,.064-.007,2.841,0,5.145,2.303,5.145,5.145s-2.303,5.145-5.145,5.145Z" style={{fill: "url(#e)"}}/>
      <path d="M60.304,25.511c-2.841,0-5.145-2.303-5.145-5.145,0-.691,.141-1.348,.388-1.95H1.598c-.882,0-1.598-.715-1.598-1.598s.716-1.598,1.598-1.598H60.175c.022,0,.043,.006,.064,.007,.022,0,.042-.007,.064-.007,2.841,0,5.145,2.303,5.145,5.145s-2.303,5.145-5.145,5.145Z" style={{fill: "url(#f)"}}/>
      <path d="M49.653,0c-2.841,0-5.145,2.303-5.145,5.145,0,.691,.141,1.348,.388,1.95H26.093c-.882,0-1.598,.715-1.598,1.598s.716,1.598,1.598,1.598h23.431c.022,0,.043-.006,.064-.007,.022,0,.042,.007,.064,.007,2.841,0,5.145-2.303,5.145-5.145s-2.303-5.145-5.145-5.145Z" style={{fill: "url(#g)"}}/>
    </g>
  </g>
</svg>